HIERARCHY
ROOT joint_Root
{
	OFFSET 0.0 0.0 0.0
	CHANNELS 6 Xposition Yposition Zposition Zrotation Xrotation Yrotation 
	JOINT Hips
	{
		OFFSET 4.5925 91.4895 -427.239
		CHANNELS 6 Xposition Yposition Zposition Zrotation Xrotation Yrotation 
		JOINT Spine
		{
			OFFSET 15.7357 0.0 0.0
			CHANNELS 6 Xposition Yposition Zposition Zrotation Xrotation Yrotation 
			JOINT Chest
			{
				OFFSET 8.98455 -0.406207 0.0
				CHANNELS 6 Xposition Yposition Zposition Zrotation Xrotation Yrotation 
				JOINT Neck
				{
					OFFSET 16.3773 0.0 0.0
					CHANNELS 6 Xposition Yposition Zposition Zrotation Xrotation Yrotation 
					JOINT Head
					{
						OFFSET 6.45672 0.0 0.0
						CHANNELS 6 Xposition Yposition Zposition Zrotation Xrotation Yrotation 
						End Site
						{
							OFFSET 0.0 0.0 0.0
						}
					}
				}
				JOINT Shoulder_L
				{
					OFFSET 12.9942 -0.242716 4.98039
					CHANNELS 6 Xposition Yposition Zposition Zrotation Xrotation Yrotation 
					JOINT UpperArm_L
					{
						OFFSET 5.34809 0.0 0.0
						CHANNELS 6 Xposition Yposition Zposition Zrotation Xrotation Yrotation 
						JOINT LowerArm_L
						{
							OFFSET 24.3286 1.87007e-05 0.0
							CHANNELS 6 Xposition Yposition Zposition Zrotation Xrotation Yrotation 
							JOINT Hand_L
							{
								OFFSET 22.2916 0.0 0.0
								CHANNELS 6 Xposition Yposition Zposition Zrotation Xrotation Yrotation 
								End Site
								{
									OFFSET 0.0 0.0 0.0
								}
							}
						}
					}
				}
				JOINT Shoulder_R
				{
					OFFSET 12.9945 -0.242716 -4.98039
					CHANNELS 6 Xposition Yposition Zposition Zrotation Xrotation Yrotation 
					JOINT UpperArm_R
					{
						OFFSET -5.34813 0.0 0.0
						CHANNELS 6 Xposition Yposition Zposition Zrotation Xrotation Yrotation 
						JOINT LowerArm_R
						{
							OFFSET -24.3289 0.000322201 0.0
							CHANNELS 6 Xposition Yposition Zposition Zrotation Xrotation Yrotation 
							JOINT Hand_R
							{
								OFFSET -22.2915 -0.000108084 0.0
								CHANNELS 6 Xposition Yposition Zposition Zrotation Xrotation Yrotation 
								End Site
								{
									OFFSET 0.0 0.0 0.0
								}
							}
						}
					}
				}
			}
		}
		JOINT UpperLeg_L
		{
			OFFSET -2.19248 -6.46944 0.0
			CHANNELS 6 Xposition Yposition Zposition Zrotation Xrotation Yrotation 
			JOINT LowerLeg_L
			{
				OFFSET 39.0811 0.0 -1.23785e-05
				CHANNELS 6 Xposition Yposition Zposition Zrotation Xrotation Yrotation 
				JOINT Foot_L
				{
					OFFSET 40.9854 0.0 -1.26872e-05
					CHANNELS 6 Xposition Yposition Zposition Zrotation Xrotation Yrotation 
					JOINT Toes_L
					{
						OFFSET 11.7543 0.0 0.0
						CHANNELS 6 Xposition Yposition Zposition Zrotation Xrotation Yrotation 
						End Site
						{
							OFFSET 0.0 0.0 0.0
						}
					}
				}
			}
		}
		JOINT UpperLeg_R
		{
			OFFSET -2.19251 6.46944 0.0
			CHANNELS 6 Xposition Yposition Zposition Zrotation Xrotation Yrotation 
			JOINT LowerLeg_R
			{
				OFFSET -39.0811 -0.00228153 -0.0401928
				CHANNELS 6 Xposition Yposition Zposition Zrotation Xrotation Yrotation 
				JOINT Foot_R
				{
					OFFSET -40.9854 0.0 0.0
					CHANNELS 6 Xposition Yposition Zposition Zrotation Xrotation Yrotation 
					JOINT Toes_R
					{
						OFFSET -11.7543 0.0 0.0
						CHANNELS 6 Xposition Yposition Zposition Zrotation Xrotation Yrotation 
						End Site
						{
							OFFSET 0.0 0.0 0.0
						}
					}
				}
			}
		}
	}
}
MOTION
Frames:	4
Frame Time:	0.0333333
0.000000 0.000000 0.000000 0.000000 0.000000 -0.000000 -67.592200 89.950900 172.702000 109.513000 88.174300 -19.388200 15.735700 0.000005 -0.000001 91.501600 80.848600 -90.764500 8.984550 -0.406207 -0.000000 10.527900 0.494056 1.427940 16.377300 -0.000001 -0.000001 2.985760 -2.909440 1.574440 6.456720 -0.000001 -0.000000 -2.041460 -2.507800 1.282460 12.994200 -0.242716 4.980390 -90.930500 3.217120 -73.859100 5.348090 -0.000007 -0.000001 -70.368700 23.884500 -8.696170 24.328600 0.000019 0.000005 11.216600 21.975900 -27.920200 22.291600 -0.000001 0.000005 12.310400 5.219680 2.221210 12.994500 -0.242716 -4.980390 88.569100 8.616640 -80.534700 -5.348130 -0.000001 -0.000004 -58.949600 27.767100 -17.418000 -24.328900 0.000322 -0.000009 2.250630 4.572620 -26.252800 -22.291500 -0.000108 -0.000004 16.605400 5.392140 -2.683840 -2.192480 -6.469440 -0.000000 -176.842000 -7.251550 -21.153600 39.081100 -0.000007 -0.000012 0.062678 -0.035130 60.727000 40.985400 -0.000006 -0.000013 0.518125 -0.238789 -63.318400 11.754300 -0.000000 0.000003 -0.000997 -0.015373 -17.202000 -2.192510 6.469440 -0.000001 -177.477000 21.571000 162.656000 -39.081100 -0.002282 -0.040193 -0.223748 0.308742 36.329400 -40.985400 0.000008 0.000006 8.181200 7.097390 -70.871900 -11.754300 -0.000006 -0.000006 -0.000892 -0.013854 -17.136600
0.000000 0.000000 0.000000 0.000000 0.000000 -0.000000 -65.894000 90.230200 172.855000 116.192000 87.931500 -26.083000 15.735700 0.000005 -0.000001 92.088000 80.896000 -91.522600 8.984550 -0.406207 -0.000000 10.427200 0.672011 1.068790 16.377300 -0.000001 -0.000001 2.887000 -2.990760 1.571480 6.456720 -0.000001 -0.000000 -2.071490 -2.697120 1.219560 12.994200 -0.242716 4.980390 -90.941700 3.228320 -73.729300 5.348090 -0.000007 -0.000001 -70.854700 23.542400 -7.085040 24.328600 0.000019 0.000005 10.911500 22.822500 -26.428000 22.291600 -0.000001 0.000005 11.963700 5.219520 2.224910 12.994500 -0.242716 -4.980390 88.635900 8.351140 -80.688800 -5.348130 -0.000001 -0.000004 -58.383200 26.704100 -19.398100 -24.328900 0.000322 -0.000009 2.201780 4.265580 -27.346600 -22.291500 -0.000108 -0.000004 16.805600 5.394270 -2.752200 -2.192480 -6.469440 -0.000000 -177.636000 -7.014480 -21.899900 39.081100 -0.000007 -0.000012 0.044285 -0.029911 55.960200 40.985400 -0.000006 -0.000013 0.409945 0.511317 -63.726600 11.754300 -0.000000 0.000003 -0.001226 -0.018571 -17.332000 -2.192510 6.469440 -0.000001 -178.131000 22.136600 164.665000 -39.081100 -0.002282 -0.040193 -0.170077 0.247602 34.999300 -40.985400 0.000008 0.000006 8.863050 7.562030 -71.657900 -11.754300 -0.000006 -0.000006 -0.000757 -0.011888 -17.056700
0.000000 0.000000 0.000000 0.000000 0.000000 -0.000000 -64.274000 90.458000 172.950000 118.284000 87.776100 -28.238700 15.735700 0.000005 -0.000001 92.785300 80.930200 -92.352600 8.984550 -0.406207 -0.000000 10.349900 0.885327 0.784716 16.377300 -0.000001 -0.000001 2.730590 -3.045300 1.586930 6.456720 -0.000001 -0.000000 -2.133950 -2.909040 1.153910 12.994200 -0.242716 4.980390 -90.954100 3.259020 -73.671900 5.348090 -0.000007 -0.000001 -71.178200 23.020700 -5.969150 24.328600 0.000019 0.000005 10.770200 23.961800 -25.097500 22.291600 -0.000001 0.000005 11.678500 5.208020 2.517400 12.994500 -0.242716 -4.980390 88.685400 8.176660 -80.834000 -5.348130 -0.000001 -0.000004 -57.660500 25.792500 -21.172000 -24.328900 0.000322 -0.000009 2.025420 3.721040 -28.600200 -22.291500 -0.000108 -0.000004 16.969400 5.400610 -2.957390 -2.192480 -6.469440 -0.000000 -178.348000 -7.422230 -22.261300 39.081100 -0.000007 -0.000012 0.031929 -0.027252 49.514900 40.985400 -0.000006 -0.000013 0.158829 1.531930 -63.675900 11.754300 -0.000000 0.000003 -0.001459 -0.021730 -17.460400 -2.192510 6.469440 -0.000001 -178.618000 22.659600 166.573000 -39.081100 -0.002282 -0.040193 -0.111905 0.173157 33.635400 -40.985400 0.000008 0.000006 9.552050 7.941840 -72.363500 -11.754300 -0.000006 -0.000006 -0.000718 -0.011321 -17.033700
0.000000 0.000000 0.000000 0.000000 0.000000 -0.000000 -62.737800 90.597800 172.983000 117.418000 87.584200 -27.554600 15.735700 0.000005 -0.000001 93.493300 80.977700 -93.181400 8.984550 -0.406207 -0.000000 10.243600 1.098990 0.524865 16.377300 -0.000001 -0.000001 2.586740 -3.041080 1.605120 6.456720 -0.000001 -0.000000 -2.270170 -2.997870 1.016190 12.994200 -0.242716 4.980390 -90.988100 3.345040 -73.533200 5.348090 -0.000007 -0.000001 -71.374400 22.234000 -5.142870 24.328600 0.000019 0.000005 10.573400 24.603900 -24.148600 22.291600 -0.000001 0.000005 11.503300 5.196920 2.796400 12.994500 -0.242716 -4.980390 88.721200 8.091750 -80.988300 -5.348130 -0.000001 -0.000004 -56.565200 25.430300 -22.983000 -24.328900 0.000322 -0.000009 2.029900 3.558540 -29.741200 -22.291500 -0.000108 -0.000004 17.421100 5.402350 -3.013730 -2.192480 -6.469440 -0.000000 -179.193000 -8.641160 -22.480700 39.081100 -0.000007 -0.000012 0.023888 -0.026679 41.838400 40.985400 -0.000006 -0.000013 -0.013695 2.638570 -62.734800 11.754300 -0.000000 0.000003 -0.001227 -0.018590 -17.332800 -2.192510 6.469440 -0.000001 -179.047000 23.175800 168.181000 -39.081100 -0.002282 -0.040193 -0.064333 0.106181 32.494100 -40.985400 0.000008 0.000006 10.102400 8.413380 -73.094800 -11.754300 -0.000006 -0.000006 -0.000652 -0.010338 -16.993700
